<?xml version="1.0" standalone="no"?>
<!DOCTYPE svg PUBLIC "-//W3C//DTD SVG 20010904//EN"
 "http://www.w3.org/TR/2001/REC-SVG-20010904/DTD/svg10.dtd">
<svg version="1.0" xmlns="http://www.w3.org/2000/svg"
 width="616.000000pt" height="640.000000pt" viewBox="0 0 616.000000 640.000000"
 preserveAspectRatio="xMidYMid meet">

<g transform="translate(0.000000,640.000000) scale(0.100000,-0.100000)"
fill="#000000" stroke="none">
<path d="M2866 5554 c-103 -20 -191 -51 -296 -105 -123 -63 -210 -129 -311
-237 l-82 -88 -236 33 c-130 17 -251 34 -268 37 l-33 5 0 -110 c0 -178 37
-316 124 -463 44 -75 163 -208 220 -247 l36 -24 0 -292 c0 -327 -4 -313 70
-272 66 38 70 52 70 279 l0 202 23 -7 c144 -47 206 -58 332 -58 149 0 241 20
363 78 39 19 72 31 72 28 0 -3 -17 -70 -37 -149 -20 -79 -35 -146 -31 -149 3
-3 38 -9 77 -14 241 -25 466 82 602 289 l16 24 34 -26 c83 -63 195 -103 315
-114 l74 -7 0 -203 0 -202 26 -32 c28 -32 73 -60 99 -60 13 0 15 32 15 263 l0
263 44 13 c67 19 162 80 227 143 97 95 102 82 -73 200 -135 91 -154 107 -161
138 -21 86 -72 221 -109 290 -159 297 -451 512 -781 575 -98 19 -326 18 -421
-1z"/>
<path d="M3463 4083 c-19 -7 -16 -31 6 -42 41 -22 214 -81 222 -75 16 9 10 41
-8 47 -10 2 -61 20 -113 39 -52 19 -101 33 -107 31z"/>
<path d="M2560 3981 c-85 -14 -95 -19 -98 -39 -4 -27 8 -28 133 -7 119 21 125
23 125 46 0 23 -25 24 -160 0z"/>
<path d="M2529 3731 c-24 -25 -29 -38 -29 -78 1 -73 42 -113 115 -113 53 0
105 53 105 107 0 70 -43 112 -113 113 -41 0 -53 -5 -78 -29z"/>
<path d="M3533 3735 c-43 -18 -68 -59 -67 -109 1 -32 8 -46 38 -73 24 -22 46
-33 66 -33 123 0 165 162 56 214 -41 19 -51 19 -93 1z"/>
<path d="M2474 2698 c-24 -73 -28 -99 -28 -208 0 -108 4 -136 26 -202 14 -42
38 -98 52 -123 l27 -46 40 61 c49 73 114 130 194 169 77 38 132 50 226 51 185
0 355 -102 441 -265 20 -39 42 -96 49 -127 6 -32 15 -58 19 -58 14 0 117 107
150 154 68 100 119 248 120 347 l0 35 -632 147 c-348 81 -638 147 -645 147 -7
0 -24 -37 -39 -82z"/>
<path d="M2575 1501 c-513 -178 -891 -591 -1023 -1116 -22 -87 -37 -187 -47
-307 l-6 -78 1581 0 c869 0 1580 3 1580 8 -1 51 -24 252 -36 311 -113 551
-505 995 -1042 1182 -90 31 -95 32 -140 18 l-47 -15 -5 -144 c-5 -123 -9 -151
-27 -186 -45 -86 -155 -154 -248 -154 -60 0 -135 30 -182 73 -74 68 -86 102
-93 255 l-5 134 -75 24 c-41 13 -82 23 -90 23 -8 0 -51 -13 -95 -28z"/>
</g>
</svg>
