<?xml version="1.0" standalone="no"?>
<!DOCTYPE svg PUBLIC "-//W3C//DTD SVG 20010904//EN"
 "http://www.w3.org/TR/2001/REC-SVG-20010904/DTD/svg10.dtd">
<svg version="1.0" xmlns="http://www.w3.org/2000/svg"
 width="500.000000pt" height="500.000000pt" viewBox="0 0 500.000000 500.000000"
 preserveAspectRatio="xMidYMid meet">

<g transform="translate(0.000000,500.000000) scale(0.100000,-0.100000)"
fill="#000000" stroke="none">
<path d="M0 2500 l0 -2500 2500 0 2500 0 0 2500 0 2500 -2500 0 -2500 0 0
-2500z m2410 845 c124 -33 272 -137 331 -231 16 -27 27 -34 53 -34 86 0 224
-58 309 -129 138 -115 209 -268 208 -444 0 -217 -95 -383 -285 -500 -171 -106
-403 -106 -586 0 -54 32 -153 124 -181 170 -17 28 -26 33 -58 33 -100 0 -252
73 -345 166 -111 112 -169 251 -169 409 0 260 168 483 418 556 75 22 230 24
305 4z m-745 -1685 c14 -5 28 -17 32 -26 7 -19 -17 -38 -31 -24 -17 17 -65 11
-76 -9 -15 -29 -13 -39 14 -56 19 -13 29 -14 46 -5 11 6 30 8 42 4 22 -7 22
-7 -6 -30 -89 -77 -200 43 -117 127 31 31 53 35 96 19z m244 -16 c89 -74 -21
-206 -112 -134 -48 38 -42 116 12 145 39 21 66 18 100 -11z m181 -26 l35 -52
3 52 c3 48 5 52 28 52 24 0 24 -1 24 -90 0 -89 0 -90 -25 -90 -18 0 -35 14
-62 51 l-38 50 -3 -50 c-3 -42 -6 -51 -22 -51 -24 0 -26 6 -22 100 3 75 5 80
25 80 15 0 33 -17 57 -52z m240 0 l35 -52 3 52 c3 48 5 52 28 52 24 0 24 -1
24 -90 0 -89 0 -90 -25 -90 -18 0 -35 14 -62 51 l-38 50 -3 -50 c-3 -42 -6
-51 -22 -51 -24 0 -26 6 -22 100 3 75 5 80 25 80 15 0 33 -17 57 -52z m268 30
c2 -12 -5 -17 -29 -20 -43 -4 -51 -28 -10 -28 24 0 31 -4 31 -20 0 -16 -7 -20
-30 -20 -20 0 -30 -5 -30 -15 0 -10 11 -15 35 -15 28 0 35 -4 35 -20 0 -18 -7
-20 -55 -20 l-55 0 0 91 0 90 52 -3 c40 -2 54 -7 56 -20z m192 7 c17 -9 30
-22 30 -29 0 -18 -31 -29 -44 -16 -15 15 -52 12 -66 -5 -16 -20 -5 -62 19 -70
10 -3 31 0 45 6 21 10 29 10 39 0 9 -10 7 -16 -12 -32 -28 -23 -78 -25 -108
-4 -48 34 -46 122 5 149 35 19 56 20 92 1z m210 -5 c0 -13 -7 -20 -20 -20 -18
0 -20 -7 -20 -70 0 -68 -1 -70 -25 -70 -24 0 -25 2 -25 70 0 63 -2 70 -20 70
-13 0 -20 7 -20 20 0 18 7 20 65 20 58 0 65 -2 65 -20z m98 -72 l3 -88 -26 0
c-25 0 -25 0 -25 91 0 88 1 90 23 87 21 -3 22 -8 25 -90z m182 73 c0 -15 -8
-21 -32 -23 -42 -4 -50 -28 -9 -28 24 0 31 -4 31 -20 0 -16 -7 -20 -30 -20
-28 0 -30 -3 -30 -35 0 -28 -4 -35 -20 -35 -19 0 -20 7 -20 90 l0 90 55 0 c48
0 55 -3 55 -19z m95 -8 l18 -26 19 26 c19 26 58 37 58 16 0 -5 -11 -27 -25
-47 -17 -25 -25 -50 -25 -79 0 -39 -2 -43 -25 -43 -23 0 -25 4 -25 43 0 23 -6
51 -13 62 -52 75 -52 75 -24 75 16 0 31 -10 42 -27z"/>
<path d="M2139 3226 c-121 -34 -228 -125 -287 -245 -36 -74 -37 -77 -37 -195
0 -118 1 -123 36 -196 43 -89 114 -164 197 -207 196 -103 455 -50 579 119 19
27 39 48 45 48 5 0 29 -12 54 -26 l44 -26 -29 -41 c-68 -99 -193 -192 -304
-226 l-59 -18 34 -33 c114 -115 300 -160 459 -110 124 38 217 119 277 239 36
74 37 77 37 196 0 119 -1 122 -37 196 -61 123 -171 214 -301 249 -77 21 -221
9 -292 -24 -76 -35 -146 -89 -185 -143 -17 -24 -36 -43 -41 -43 -6 0 -30 12
-55 26 l-44 26 29 41 c68 99 193 192 306 226 l59 18 -34 33 c-93 87 -204 131
-329 129 -42 0 -97 -7 -122 -13z"/>
<path d="M1822 1608 c-39 -39 17 -100 58 -63 34 31 20 75 -25 75 -12 0 -26 -5
-33 -12z"/>
</g>
</svg>
