<?xml version="1.0" standalone="no"?>
<!DOCTYPE svg PUBLIC "-//W3C//DTD SVG 20010904//EN"
 "http://www.w3.org/TR/2001/REC-SVG-20010904/DTD/svg10.dtd">
<svg version="1.0" xmlns="http://www.w3.org/2000/svg"
 width="500.000000pt" height="141.000000pt" viewBox="0 0 500.000000 141.000000"
 preserveAspectRatio="xMidYMid meet">

<g transform="translate(0.000000,141.000000) scale(0.100000,-0.100000)"
fill="#000000" stroke="none">
<path d="M0 705 l0 -705 2500 0 2500 0 0 705 0 705 -2500 0 -2500 0 0 -705z
m350 200 c36 -19 68 -63 72 -101 2 -23 -1 -30 -19 -32 -16 -2 -23 3 -28 26
-10 46 -47 74 -103 80 -44 4 -53 1 -83 -26 l-34 -30 0 -142 0 -142 33 -29 c63
-56 170 -27 185 51 5 21 12 30 27 30 16 0 20 -7 20 -36 0 -27 -8 -44 -33 -69
-59 -59 -151 -68 -220 -21 -51 35 -62 67 -65 203 -4 143 12 198 70 233 40 24
135 27 178 5z m531 -8 c57 -38 69 -75 69 -215 0 -132 -9 -170 -51 -209 -48
-44 -153 -49 -214 -9 -50 33 -60 69 -60 216 0 154 11 187 75 221 51 27 137 26
181 -4z m409 -94 c40 -65 91 -148 113 -185 23 -37 43 -65 46 -62 3 2 4 69 2
148 -3 171 3 216 30 216 18 0 19 -11 20 -200 0 -110 1 -217 2 -237 0 -31 -3
-39 -21 -41 -23 -4 -33 10 -176 243 l-86 140 0 -193 0 -192 -25 0 -25 0 0 240
0 240 24 0 c20 0 36 -20 96 -117z m610 -69 l115 -187 5 184 c5 181 5 184 28
187 l22 3 0 -240 0 -241 -22 0 c-19 0 -44 34 -138 187 l-115 186 -3 -186 -2
-187 -25 0 -25 0 0 240 0 240 23 0 c18 0 43 -33 137 -186z m718 164 c3 -16 -8
-18 -127 -18 l-131 0 0 -90 0 -90 90 0 c83 0 90 -1 90 -20 0 -19 -7 -20 -90
-20 l-90 0 0 -90 0 -90 130 0 c123 0 130 -1 130 -20 0 -19 -7 -20 -155 -20
l-155 0 0 240 0 241 152 -3 c136 -3 153 -5 156 -20z m449 2 c36 -22 63 -66 63
-105 0 -20 -5 -25 -25 -25 -20 0 -25 5 -25 24 0 97 -177 116 -209 23 -15 -41
-14 -250 1 -282 15 -34 57 -55 108 -55 33 0 48 6 71 29 17 17 29 40 29 55 0
21 5 26 25 26 21 0 25 -5 25 -27 0 -86 -104 -149 -202 -123 -95 25 -118 73
-118 242 0 140 12 177 69 215 45 30 141 32 188 3z m573 0 c0 -22 1 -21 -80
-24 l-55 -1 -3 -217 -2 -218 -25 0 -25 0 -2 218 -3 217 -55 1 c-81 2 -80 2
-80 24 0 19 7 20 165 20 158 0 165 -1 165 -20z m250 -221 l0 -240 -22 3 c-23
3 -23 3 -26 228 -1 123 0 230 2 237 3 7 15 13 26 13 20 0 20 -5 20 -241z m548
219 c3 -16 -8 -18 -127 -18 l-131 0 0 -90 0 -90 90 0 c83 0 90 -1 90 -20 0
-19 -7 -20 -90 -20 l-90 0 0 -110 0 -110 -25 0 -25 0 0 240 0 241 152 -3 c136
-3 153 -5 156 -20z m252 -85 c30 -57 57 -103 60 -103 3 0 31 48 63 105 49 88
63 105 83 105 13 0 24 -2 24 -5 0 -3 -30 -58 -67 -122 l-68 -118 -5 -115 c-5
-110 -6 -115 -27 -118 -23 -3 -23 -1 -23 99 l0 102 -70 128 c-38 71 -70 133
-70 139 0 6 10 10 23 8 17 -2 35 -28 77 -105z"/>
<path d="M730 867 c-43 -21 -60 -71 -60 -177 0 -114 12 -162 47 -190 50 -39
146 -19 171 35 7 16 12 75 12 151 l0 126 -34 34 c-27 27 -42 34 -72 34 -22 0
-50 -6 -64 -13z"/>
</g>
</svg>
